<svg width="393" height="1270" viewBox="0 0 393 1270" fill="none" xmlns="http://www.w3.org/2000/svg">
<g clip-path="url(#clip0_549_3117)">
<rect width="393" height="1270" fill="white"/>
<g clip-path="url(#clip1_549_3117)">
<rect width="393" height="1304" fill="url(#paint0_linear_549_3117)"/>
<circle cx="15" cy="181" r="1.5" transform="rotate(-90 15 181)" fill="white" fill-opacity="0.2"/>
<circle cx="15" cy="148" r="1.5" transform="rotate(-90 15 148)" fill="white" fill-opacity="0.2"/>
<circle cx="15" cy="115" r="1.5" transform="rotate(-90 15 115)" fill="white" fill-opacity="0.2"/>
<circle cx="15" cy="82" r="1.5" transform="rotate(-90 15 82)" fill="white" fill-opacity="0.2"/>
<circle cx="15" cy="49" r="1.5" transform="rotate(-90 15 49)" fill="white" fill-opacity="0.2"/>
<circle cx="15" cy="16" r="1.5" transform="rotate(-90 15 16)" fill="white" fill-opacity="0.2"/>
<circle cx="48" cy="181" r="1.5" transform="rotate(-90 48 181)" fill="white" fill-opacity="0.2"/>
<circle cx="48" cy="148" r="1.5" transform="rotate(-90 48 148)" fill="white" fill-opacity="0.2"/>
<circle cx="48" cy="115" r="1.5" transform="rotate(-90 48 115)" fill="white" fill-opacity="0.2"/>
<circle cx="48" cy="82" r="1.5" transform="rotate(-90 48 82)" fill="white" fill-opacity="0.2"/>
<circle cx="48" cy="49" r="1.5" transform="rotate(-90 48 49)" fill="white" fill-opacity="0.2"/>
<circle cx="48" cy="16" r="1.5" transform="rotate(-90 48 16)" fill="white" fill-opacity="0.2"/>
<circle cx="81" cy="181" r="1.5" transform="rotate(-90 81 181)" fill="white" fill-opacity="0.2"/>
<circle cx="81" cy="148" r="1.5" transform="rotate(-90 81 148)" fill="white" fill-opacity="0.2"/>
<circle cx="81" cy="115" r="1.5" transform="rotate(-90 81 115)" fill="white" fill-opacity="0.2"/>
<circle cx="81" cy="82" r="1.5" transform="rotate(-90 81 82)" fill="white" fill-opacity="0.2"/>
<circle cx="81" cy="49" r="1.5" transform="rotate(-90 81 49)" fill="white" fill-opacity="0.2"/>
<circle cx="81" cy="16" r="1.5" transform="rotate(-90 81 16)" fill="white" fill-opacity="0.2"/>
<circle cx="114" cy="181" r="1.5" transform="rotate(-90 114 181)" fill="white" fill-opacity="0.2"/>
<circle cx="114" cy="148" r="1.5" transform="rotate(-90 114 148)" fill="white" fill-opacity="0.2"/>
<circle cx="114" cy="115" r="1.5" transform="rotate(-90 114 115)" fill="white" fill-opacity="0.2"/>
<circle cx="114" cy="82" r="1.5" transform="rotate(-90 114 82)" fill="white" fill-opacity="0.2"/>
<circle cx="114" cy="49" r="1.5" transform="rotate(-90 114 49)" fill="white" fill-opacity="0.2"/>
<circle cx="114" cy="16" r="1.5" transform="rotate(-90 114 16)" fill="white" fill-opacity="0.2"/>
<circle cx="147" cy="181" r="1.5" transform="rotate(-90 147 181)" fill="white" fill-opacity="0.2"/>
<circle cx="147" cy="148" r="1.5" transform="rotate(-90 147 148)" fill="white" fill-opacity="0.2"/>
<circle cx="147" cy="115" r="1.5" transform="rotate(-90 147 115)" fill="white" fill-opacity="0.2"/>
<circle cx="147" cy="82" r="1.5" transform="rotate(-90 147 82)" fill="white" fill-opacity="0.2"/>
<circle cx="147" cy="49" r="1.5" transform="rotate(-90 147 49)" fill="white" fill-opacity="0.2"/>
<circle cx="147" cy="16" r="1.5" transform="rotate(-90 147 16)" fill="white" fill-opacity="0.2"/>
<circle cx="180" cy="181" r="1.5" transform="rotate(-90 180 181)" fill="white" fill-opacity="0.2"/>
<circle cx="180" cy="148" r="1.5" transform="rotate(-90 180 148)" fill="white" fill-opacity="0.2"/>
<circle cx="180" cy="115" r="1.5" transform="rotate(-90 180 115)" fill="white" fill-opacity="0.2"/>
<circle cx="180" cy="82" r="1.5" transform="rotate(-90 180 82)" fill="white" fill-opacity="0.2"/>
<circle cx="180" cy="49" r="1.5" transform="rotate(-90 180 49)" fill="white" fill-opacity="0.2"/>
<circle cx="180" cy="16" r="1.5" transform="rotate(-90 180 16)" fill="white" fill-opacity="0.2"/>
<circle cx="213" cy="181" r="1.5" transform="rotate(-90 213 181)" fill="white" fill-opacity="0.2"/>
<circle cx="213" cy="148" r="1.5" transform="rotate(-90 213 148)" fill="white" fill-opacity="0.2"/>
<circle cx="213" cy="115" r="1.5" transform="rotate(-90 213 115)" fill="white" fill-opacity="0.2"/>
<circle cx="213" cy="82" r="1.5" transform="rotate(-90 213 82)" fill="white" fill-opacity="0.2"/>
<circle cx="213" cy="49" r="1.5" transform="rotate(-90 213 49)" fill="white" fill-opacity="0.2"/>
<circle cx="213" cy="16" r="1.5" transform="rotate(-90 213 16)" fill="white" fill-opacity="0.2"/>
<circle cx="246" cy="181" r="1.5" transform="rotate(-90 246 181)" fill="white" fill-opacity="0.2"/>
<circle cx="246" cy="148" r="1.5" transform="rotate(-90 246 148)" fill="white" fill-opacity="0.2"/>
<circle cx="246" cy="115" r="1.5" transform="rotate(-90 246 115)" fill="white" fill-opacity="0.2"/>
<circle cx="246" cy="82" r="1.5" transform="rotate(-90 246 82)" fill="white" fill-opacity="0.2"/>
<circle cx="246" cy="49" r="1.5" transform="rotate(-90 246 49)" fill="white" fill-opacity="0.2"/>
<circle cx="246" cy="16" r="1.5" transform="rotate(-90 246 16)" fill="white" fill-opacity="0.2"/>
<circle cx="279" cy="181" r="1.5" transform="rotate(-90 279 181)" fill="white" fill-opacity="0.2"/>
<circle cx="279" cy="148" r="1.5" transform="rotate(-90 279 148)" fill="white" fill-opacity="0.2"/>
<circle cx="279" cy="115" r="1.5" transform="rotate(-90 279 115)" fill="white" fill-opacity="0.2"/>
<circle cx="279" cy="82" r="1.5" transform="rotate(-90 279 82)" fill="white" fill-opacity="0.2"/>
<circle cx="279" cy="49" r="1.5" transform="rotate(-90 279 49)" fill="white" fill-opacity="0.2"/>
<circle cx="279" cy="16" r="1.5" transform="rotate(-90 279 16)" fill="white" fill-opacity="0.2"/>
<circle cx="312" cy="181" r="1.5" transform="rotate(-90 312 181)" fill="white" fill-opacity="0.2"/>
<circle cx="312" cy="148" r="1.5" transform="rotate(-90 312 148)" fill="white" fill-opacity="0.2"/>
<circle cx="312" cy="115" r="1.5" transform="rotate(-90 312 115)" fill="white" fill-opacity="0.2"/>
<circle cx="312" cy="82" r="1.5" transform="rotate(-90 312 82)" fill="white" fill-opacity="0.2"/>
<circle cx="312" cy="49" r="1.5" transform="rotate(-90 312 49)" fill="white" fill-opacity="0.2"/>
<circle cx="312" cy="16" r="1.5" transform="rotate(-90 312 16)" fill="white" fill-opacity="0.2"/>
<circle cx="345" cy="181" r="1.5" transform="rotate(-90 345 181)" fill="white" fill-opacity="0.2"/>
<circle cx="345" cy="148" r="1.5" transform="rotate(-90 345 148)" fill="white" fill-opacity="0.2"/>
<circle cx="345" cy="115" r="1.5" transform="rotate(-90 345 115)" fill="white" fill-opacity="0.2"/>
<circle cx="345" cy="82" r="1.5" transform="rotate(-90 345 82)" fill="white" fill-opacity="0.2"/>
<circle cx="345" cy="49" r="1.5" transform="rotate(-90 345 49)" fill="white" fill-opacity="0.2"/>
<circle cx="345" cy="16" r="1.5" transform="rotate(-90 345 16)" fill="white" fill-opacity="0.2"/>
<circle cx="378" cy="181" r="1.5" transform="rotate(-90 378 181)" fill="white" fill-opacity="0.2"/>
<circle cx="378" cy="148" r="1.5" transform="rotate(-90 378 148)" fill="white" fill-opacity="0.2"/>
<circle cx="378" cy="115" r="1.5" transform="rotate(-90 378 115)" fill="white" fill-opacity="0.2"/>
<circle cx="378" cy="82" r="1.5" transform="rotate(-90 378 82)" fill="white" fill-opacity="0.2"/>
<circle cx="378" cy="49" r="1.5" transform="rotate(-90 378 49)" fill="white" fill-opacity="0.2"/>
<circle cx="378" cy="16" r="1.5" transform="rotate(-90 378 16)" fill="white" fill-opacity="0.2"/>
</g>
</g>
<defs>
<linearGradient id="paint0_linear_549_3117" x1="196.5" y1="0" x2="196.5" y2="1304" gradientUnits="userSpaceOnUse">
<stop stop-color="#072072"/>
<stop offset="1" stop-color="#53B7FF"/>
</linearGradient>
<clipPath id="clip0_549_3117">
<rect width="393" height="1270" fill="white"/>
</clipPath>
<clipPath id="clip1_549_3117">
<rect width="393" height="1304" fill="white"/>
</clipPath>
</defs>
</svg>
