<svg width="26" height="24" viewBox="0 0 26 24" fill="none" xmlns="http://www.w3.org/2000/svg">
<g id="Group">
<path id="Vector" d="M10.3333 6.33333V3.66667C10.3333 2.95942 10.6143 2.28115 11.1144 1.78105C11.6145 1.28095 12.2928 1 13 1H22.3333C23.0406 1 23.7189 1.28095 24.219 1.78105C24.719 2.28115 25 2.95942 25 3.66667V19.6667C25 20.3739 24.719 21.0522 24.219 21.5523C23.7189 22.0524 23.0406 22.3333 22.3333 22.3333H13C12.2928 22.3333 11.6145 22.0524 11.1144 21.5523C10.6143 21.0522 10.3333 20.3739 10.3333 19.6667V17" stroke="white" stroke-width="2" stroke-linecap="round" stroke-linejoin="round"/>
<path id="Vector_2" d="M17 11.6666H1M1 11.6666L5 7.66663M1 11.6666L5 15.6666" stroke="white" stroke-width="2" stroke-linecap="round" stroke-linejoin="round"/>
</g>
</svg>
