<svg width="21" height="24" viewBox="0 0 21 24" fill="none" xmlns="http://www.w3.org/2000/svg">
<path id="Vector" d="M9.38369 1.50171C10.0754 1.10644 10.9246 1.10644 11.6163 1.50171L19.1163 5.78742C19.8174 6.18802 20.25 6.93354 20.25 7.74097V16.259C20.25 17.0665 19.8174 17.812 19.1163 18.2126L11.6163 22.4983C10.9246 22.8936 10.0754 22.8936 9.38369 22.4983L1.88369 18.2126C1.18264 17.812 0.75 17.0665 0.75 16.259V7.74097C0.75 6.93354 1.18264 6.18802 1.88369 5.78742L1.51158 5.13624L1.88369 5.78742L9.38369 1.50171ZM10.5 16.0227C11.5752 16.0227 12.6083 15.6013 13.3715 14.848C14.135 14.0943 14.5658 13.0701 14.5658 12C14.5658 10.9299 14.135 9.90568 13.3715 9.15205C12.6083 8.39874 11.5752 7.97727 10.5 7.97727C9.42483 7.97727 8.39174 8.39874 7.62853 9.15205C6.86498 9.90568 6.43421 10.9299 6.43421 12C6.43421 13.0701 6.86498 14.0943 7.62853 14.848C8.39174 15.6013 9.42483 16.0227 10.5 16.0227Z" stroke="white" stroke-width="1.5"/>
</svg>
