<svg width="28" height="26" viewBox="0 0 28 26" fill="none" xmlns="http://www.w3.org/2000/svg">
<g id="Group 1">
<path id="Union" d="M26.6977 19.5L17.1977 25V11.5L7.69766 6L17.1977 1L26.6977 7V19.5Z" fill="#111111"/>
<path id="Vector" d="M27.482 5.62383L17.482 0.123829C17.3343 0.0425953 17.1685 0 17 0C16.8315 0 16.6657 0.0425953 16.518 0.123829L6.51799 5.62383C6.36121 5.71015 6.23046 5.83698 6.1394 5.99106C6.04834 6.14515 6.00031 6.32085 6.00031 6.49983C6.00031 6.67881 6.04834 6.85451 6.1394 7.0086C6.23046 7.16268 6.36121 7.2895 6.51799 7.37583L16 12.5908V23.3098L12.964 21.6398L12 23.3908L16.518 25.8758C16.6656 25.9572 16.8314 25.9999 17 25.9999C17.1686 25.9999 17.3344 25.9572 17.482 25.8758L27.482 20.3758C27.6388 20.2895 27.7696 20.1627 27.8608 20.0087C27.9519 19.8546 28 19.6788 28 19.4998V6.49983C28 6.32082 27.9519 6.14509 27.8608 5.99101C27.7696 5.83692 27.6388 5.71011 27.482 5.62383ZM17 2.14183L24.925 6.49983L17 10.8578L9.07499 6.49983L17 2.14183ZM26 18.9088L18 23.3088V12.5898L26 8.18983V18.9088Z" fill="#111111"/>
<path id="Vector_2" d="M8 12.9998H0V10.9998H8V12.9998ZM10 20.9998H2V18.9998H10V20.9998ZM12 16.9998H4V14.9998H12V16.9998Z" fill="#111111"/>
</g>
</svg>
