<svg width="19" height="22" viewBox="0 0 19 22" fill="none" xmlns="http://www.w3.org/2000/svg">
<path id="Vector" d="M2.55769 22H1.09615C0.805436 22 0.526625 21.8841 0.321056 21.6778C0.115487 21.4715 0 21.1917 0 20.9V14.3C0 14.0083 0.115487 13.7285 0.321056 13.5222C0.526625 13.3159 0.805436 13.2 1.09615 13.2H2.55769C2.84841 13.2 3.12722 13.3159 3.33279 13.5222C3.53836 13.7285 3.65385 14.0083 3.65385 14.3V20.9C3.65385 21.1917 3.53836 21.4715 3.33279 21.6778C3.12722 21.8841 2.84841 22 2.55769 22ZM12.7885 22H11.3269C11.0362 22 10.7574 21.8841 10.5518 21.6778C10.3463 21.4715 10.2308 21.1917 10.2308 20.9V9.9C10.2308 9.60826 10.3463 9.32847 10.5518 9.12218C10.7574 8.91589 11.0362 8.8 11.3269 8.8H12.7885C13.0792 8.8 13.358 8.91589 13.5636 9.12218C13.7691 9.32847 13.8846 9.60826 13.8846 9.9V20.9C13.8846 21.1917 13.7691 21.4715 13.5636 21.6778C13.358 21.8841 13.0792 22 12.7885 22ZM17.9038 22H16.4423C16.1516 22 15.8728 21.8841 15.6672 21.6778C15.4616 21.4715 15.3462 21.1917 15.3462 20.9V4.76667C15.3462 4.47493 15.4616 4.19514 15.6672 3.98885C15.8728 3.78256 16.1516 3.66667 16.4423 3.66667H17.9038C18.1946 3.66667 18.4734 3.78256 18.6789 3.98885C18.8845 4.19514 19 4.47493 19 4.76667V20.9C19 21.1917 18.8845 21.4715 18.6789 21.6778C18.4734 21.8841 18.1946 22 17.9038 22ZM7.67308 22H6.21154C5.92082 22 5.64201 21.8841 5.43644 21.6778C5.23087 21.4715 5.11538 21.1917 5.11538 20.9V1.1C5.11538 0.808262 5.23087 0.528473 5.43644 0.322183C5.64201 0.115893 5.92082 0 6.21154 0H7.67308C7.96379 0 8.24261 0.115893 8.44817 0.322183C8.65374 0.528473 8.76923 0.808262 8.76923 1.1V20.9C8.76923 21.1917 8.65374 21.4715 8.44817 21.6778C8.24261 21.8841 7.96379 22 7.67308 22Z" fill="#111111"/>
</svg>
