<svg width="29" height="35" viewBox="0 0 29 35" fill="none" xmlns="http://www.w3.org/2000/svg">
<g id="Group 91">
<g id="Group 1">
<path id="Vector" d="M28.4749 5.82549L18.4749 0.325489C18.3272 0.244255 18.1614 0.20166 17.9929 0.20166C17.8243 0.20166 17.6585 0.244255 17.5109 0.325489L7.51085 5.82549C7.35407 5.91181 7.22332 6.03864 7.13226 6.19272C7.0412 6.34681 6.99316 6.52251 6.99316 6.70149C6.99316 6.88047 7.0412 7.05617 7.13226 7.21026C7.22332 7.36434 7.35407 7.49116 7.51085 7.57749L16.9929 12.7925V23.5115L13.9569 21.8415L12.9929 23.5925L17.5109 26.0775C17.6585 26.1589 17.8243 26.2016 17.9929 26.2016C18.1614 26.2016 18.3272 26.1589 18.4749 26.0775L28.4749 20.5775C28.6317 20.4912 28.7625 20.3644 28.8536 20.2103C28.9447 20.0562 28.9928 19.8805 28.9929 19.7015V6.70149C28.9928 6.52248 28.9447 6.34676 28.8536 6.19267C28.7625 6.03858 28.6317 5.91177 28.4749 5.82549ZM17.9929 2.34349L25.9179 6.70149L17.9929 11.0595L10.0679 6.70149L17.9929 2.34349ZM26.9929 19.1105L18.9929 23.5105V12.7915L26.9929 8.39149V19.1105Z" fill="#111111"/>
<path id="Union" d="M8.99292 13.2014H0.99292V11.2014H8.99292V13.2014ZM10.9929 21.2014H2.99292V19.2014H10.9929V21.2014ZM12.9929 17.2014H4.99292V15.2014H12.9929V17.2014Z" fill="#111111"/>
</g>
</g>
</svg>
