<svg width="22" height="32" viewBox="0 0 22 32" fill="none" xmlns="http://www.w3.org/2000/svg">
<g id="Group 95">
<g id="Group 2">
<path id="Vector 1" d="M15.8457 20.5623H6.17417C4.77382 20.5623 3.55975 19.5935 3.24898 18.2281L1.41438 10.1675C1.16069 9.05291 1.56251 7.89096 2.45057 7.17117L9.15032 1.74087C10.256 0.844652 11.8393 0.848751 12.9404 1.75068L19.561 7.1739C20.4388 7.89296 20.8358 9.04577 20.5868 10.1529L18.7726 18.2205C18.4648 19.5896 17.249 20.5623 15.8457 20.5623Z" stroke="#111111" stroke-width="1.5"/>
<path id="Vector 2 (Stroke)" fill-rule="evenodd" clip-rule="evenodd" d="M10.9963 13.6238C11.4169 13.6238 11.7579 13.8236 11.7579 14.07V17.6159C11.7579 17.8623 11.4169 18.0621 10.9963 18.0621C10.5757 18.0621 10.2347 17.8623 10.2347 17.6159V14.07C10.2347 13.8236 10.5757 13.6238 10.9963 13.6238Z" fill="#111111"/>
</g>
</g>
</svg>
