<svg width="21" height="21" viewBox="0 0 21 21" fill="none" xmlns="http://www.w3.org/2000/svg">
<path id="Vector" d="M18.9 0H2.1C1.05 0 0 0.945 0 2.1V5.2605C0 6.0165 0.4515 6.6675 1.05 7.035V18.9C1.05 20.055 2.205 21 3.15 21H17.85C18.795 21 19.95 20.055 19.95 18.9V7.035C20.5485 6.6675 21 6.0165 21 5.2605V2.1C21 0.945 19.95 0 18.9 0ZM12.6 12.6H8.4C7.8225 12.6 7.35 12.1275 7.35 11.55C7.35 10.9725 7.8225 10.5 8.4 10.5H12.6C13.1775 10.5 13.65 10.9725 13.65 11.55C13.65 12.1275 13.1775 12.6 12.6 12.6ZM18.9 5.25H2.1V2.1H18.9V5.25Z" fill="black"/>
</svg>
