<svg width="26" height="24" viewBox="0 0 26 24" fill="none" xmlns="http://www.w3.org/2000/svg">
<g id="Group">
<path id="Vector" d="M10.3333 6.53499V3.86833C10.3333 3.16108 10.6143 2.48281 11.1144 1.98271C11.6145 1.48261 12.2928 1.20166 13 1.20166H22.3333C23.0406 1.20166 23.7189 1.48261 24.219 1.98271C24.719 2.48281 25 3.16108 25 3.86833V19.8683C25 20.5756 24.719 21.2538 24.219 21.7539C23.7189 22.254 23.0406 22.535 22.3333 22.535H13C12.2928 22.535 11.6145 22.254 11.1144 21.7539C10.6143 21.2538 10.3333 20.5756 10.3333 19.8683V17.2017" stroke="#FF4444" stroke-width="2" stroke-linecap="round" stroke-linejoin="round"/>
<path id="Vector_2" d="M17 11.8682H1M1 11.8682L5 7.86816M1 11.8682L5 15.8682" stroke="#FF4444" stroke-width="2" stroke-linecap="round" stroke-linejoin="round"/>
</g>
</svg>
