<svg width="40" height="44" viewBox="0 0 40 44" fill="none" xmlns="http://www.w3.org/2000/svg">
<path id="puch notification icon" d="M11.8934 40.1323C12.8604 41.3429 14.0926 42.3201 15.4969 42.9901C16.9013 43.6601 18.4411 44.0054 20 43.9999C21.5589 44.0054 23.0987 43.6601 24.503 42.9901C25.9074 42.3201 27.1396 41.3429 28.1066 40.1323C22.7268 40.8543 17.2732 40.8543 11.8934 40.1323ZM34.9999 15.4V16.9488C34.9999 18.8078 35.5332 20.625 36.5377 22.1716L38.9999 25.9622C41.2465 29.425 39.531 34.1308 35.6221 35.2242C25.4083 38.0885 14.5917 38.0885 4.37788 35.2242C0.469023 34.1308 -1.24652 29.425 1.00013 25.9622L3.46234 22.1716C4.47027 20.6126 5.00478 18.7998 5.00233 16.9488V15.4C5.00233 6.89479 11.7178 0 20 0C28.2822 0 34.9999 6.89479 34.9999 15.4Z" fill="#111111"/>
</svg>
