<svg width="24" height="27" viewBox="0 0 24 27" fill="none" xmlns="http://www.w3.org/2000/svg">
<path d="M2.31628 18.4724L2.31691 18.4716L2.34164 18.4409C2.95581 17.6762 3.52732 16.9647 3.916 15.8615C4.30412 14.7598 4.49466 13.3199 4.49466 11.0785C4.49466 8.90247 5.00011 7.19658 5.92621 5.95238L5.92661 5.95184C6.60826 5.03433 7.53853 4.32175 8.81168 3.78253L8.85297 3.76504L8.89188 3.74276C8.988 3.68771 9.07264 3.61619 9.14243 3.53232L9.24259 3.41195L9.28622 3.26155C9.70898 1.80419 10.8184 0.95166 11.9452 0.95166C13.072 0.95166 14.1809 1.80425 14.6036 3.25999L14.6494 3.41761L14.7568 3.5417C14.8245 3.61989 14.9052 3.68682 14.9961 3.73909L15.0355 3.76178L15.0774 3.77953C16.5587 4.4073 17.6194 5.30337 18.3189 6.47341C19.0231 7.65146 19.3951 9.16478 19.3951 11.0768C19.3951 13.3188 19.5854 14.7592 19.9733 15.8609C20.3625 16.966 20.9352 17.6776 21.5512 18.4429L21.5734 18.4705L21.5735 18.4707C21.5849 18.4848 21.5962 18.4988 21.6075 18.5128C21.688 18.6128 21.7673 18.7112 21.848 18.8133L21.8522 18.8187L21.8523 18.8187C22.0075 19.0113 22.1075 19.2481 22.1379 19.5013C22.1683 19.7547 22.1274 20.011 22.0213 20.2393L22.0203 20.2415C21.7941 20.7321 21.3147 21.0417 20.7447 21.0417H3.13937C2.57556 21.0417 2.09893 20.7344 1.87084 20.2435L1.8703 20.2424C1.76369 20.014 1.72239 19.7574 1.75255 19.5037C1.78267 19.2504 1.88241 19.0136 2.0373 18.8207L2.31628 18.4724ZM2.31628 18.4724C2.28462 18.5117 2.23843 18.5695 2.19037 18.6296M2.31628 18.4724L2.19037 18.6296M8.39654 24.3499L8.39657 24.3499L8.39654 24.3499ZM8.39654 24.3499C8.4759 24.3038 8.53973 24.239 8.58385 24.1637M8.39654 24.3499L8.58385 24.1637M8.14379 23.9058L8.14406 23.9057L8.59753 23.6727C8.63716 23.7499 8.65609 23.8348 8.65378 23.9196C8.65146 24.0044 8.62791 24.0884 8.58386 24.1636L8.14379 23.9058ZM8.14379 23.9058L8.58385 24.1637M8.14379 23.9058L8.58385 24.1637M2.19037 18.6296C2.13561 18.6981 2.07844 18.7697 2.03759 18.8203L2.19037 18.6296ZM15.7537 23.9013L15.7477 23.9048L15.7538 23.9013L15.757 23.8994L15.7537 23.9013ZM14.7833 24.421H9.10644C9.36439 24.7197 9.66548 24.9768 9.9999 25.1827C10.5894 25.5457 11.2615 25.7367 11.9451 25.7374C12.6286 25.7366 13.3006 25.5456 13.8901 25.1826C14.2244 24.9767 14.5255 24.7196 14.7833 24.421Z" stroke="#111111" stroke-width="1.5"/>
<circle cx="19.0643" cy="7.32066" r="4.92857" fill="#FF4444"/>
</svg>
