<svg width="40" height="44" viewBox="0 0 40 44" fill="none" xmlns="http://www.w3.org/2000/svg">
<g id="Group 108">
<path id="puch notification icon" d="M12 40.1323C12.967 41.3429 14.1992 42.32 15.6036 42.9901C17.0079 43.6601 18.5477 44.0054 20.1066 43.9999C21.6655 44.0054 23.2053 43.6601 24.6097 42.9901C26.014 42.32 27.2462 41.3429 28.2132 40.1323C22.8334 40.8543 17.3798 40.8543 12 40.1323Z" fill="white"/>
<path id="puch notification icon_2" d="M35.699 22.7163L35.699 22.7162C34.5879 21.0053 33.9999 18.9985 33.9999 16.9488V15.4C33.9999 7.42219 27.7053 1 20 1C12.2949 1 6.00233 7.42199 6.00233 15.4V16.9482V16.9488H5.00233L35.699 22.7163ZM35.699 22.7163L38.161 26.5064M35.699 22.7163L38.161 26.5064M38.161 26.5064C38.1611 26.5066 38.1612 26.5067 38.1613 26.5069C40.0546 29.4257 38.5867 33.3565 35.3527 34.2611L35.3521 34.2613M38.161 26.5064L35.3521 34.2613M35.3521 34.2613C25.3149 37.0761 14.6851 37.0761 4.6479 34.2613L4.64727 34.2611M35.3521 34.2613L4.64727 34.2611M4.64727 34.2611C1.41325 33.3565 -0.0545625 29.4257 1.83874 26.5069M4.64727 34.2611L1.83874 26.5069M1.83874 26.5069C1.8388 26.5068 1.83885 26.5067 1.83891 26.5066" stroke="white" stroke-width="2"/>
</g>
</svg>
