<svg width="21" height="35" viewBox="0 0 21 35" fill="none" xmlns="http://www.w3.org/2000/svg">
<g id="Group 94">
<path id="Vector" d="M3.2307 23.5517H1.69224C1.56702 23.5517 1.44152 23.5002 1.34489 23.3997C1.24742 23.2983 1.18839 23.1556 1.18839 23.0017V15.8017C1.18839 15.6477 1.24742 15.505 1.34489 15.4037C1.44152 15.3032 1.56702 15.2517 1.69224 15.2517H3.2307C3.35592 15.2517 3.48142 15.3032 3.57805 15.4037C3.67552 15.505 3.73455 15.6477 3.73455 15.8017V23.0017C3.73455 23.1556 3.67551 23.2983 3.57805 23.3997L4.04659 23.8502L3.57805 23.3997C3.48142 23.5002 3.35592 23.5517 3.2307 23.5517ZM13.9999 23.5517H12.4615C12.3362 23.5517 12.2108 23.5002 12.1141 23.3997L11.6456 23.8502L12.1141 23.3997C12.0167 23.2983 11.9576 23.1556 11.9576 23.0017V11.0017C11.9576 10.8477 12.0167 10.705 12.1141 10.6037L11.6456 10.1531L12.1141 10.6037C12.2107 10.5032 12.3362 10.4517 12.4615 10.4517H13.9999C14.1251 10.4517 14.2506 10.5032 14.3473 10.6037C14.4447 10.705 14.5038 10.8477 14.5038 11.0017V23.0017C14.5038 23.1556 14.4447 23.2983 14.3473 23.3997C14.2506 23.5002 14.1251 23.5517 13.9999 23.5517ZM8.96267 23.3997L9.43121 23.8502L8.96266 23.3997C8.86603 23.5002 8.74053 23.5517 8.61531 23.5517H7.07685C6.95163 23.5517 6.82613 23.5002 6.7295 23.3997C6.63204 23.2983 6.57301 23.1556 6.57301 23.0017V1.40166C6.57301 1.24774 6.63204 1.10502 6.7295 1.00365C6.82613 0.903156 6.95163 0.85166 7.07685 0.85166H8.61531C8.74053 0.85166 8.86603 0.903156 8.96266 1.00365C9.06013 1.10502 9.11916 1.24774 9.11916 1.40166V23.0017C9.11916 23.1556 9.06013 23.2983 8.96267 23.3997ZM19.3845 23.5517H17.8461C17.7209 23.5517 17.5954 23.5002 17.4987 23.3997C17.4013 23.2983 17.3422 23.1556 17.3422 23.0017V5.40166C17.3422 5.24775 17.4013 5.10502 17.4987 5.00365C17.5954 4.90316 17.7209 4.85166 17.8461 4.85166H19.3845C19.5098 4.85166 19.6353 4.90316 19.7319 5.00365C19.8294 5.10502 19.8884 5.24774 19.8884 5.40166V23.0017C19.8884 23.1556 19.8294 23.2983 19.7319 23.3997C19.6353 23.5002 19.5098 23.5517 19.3845 23.5517Z" stroke="#111111" stroke-width="1.3"/>
</g>
</svg>
