<svg width="20" height="21" viewBox="0 0 20 21" fill="none" xmlns="http://www.w3.org/2000/svg">
<path d="M14.8457 20.5623H5.17417C3.77382 20.5623 2.55975 19.5935 2.24898 18.2281L0.414382 10.1675C0.16069 9.05291 0.562507 7.89096 1.45057 7.17117L8.15032 1.74087C9.25604 0.844652 10.8393 0.848751 11.9404 1.75068L18.561 7.1739C19.4388 7.89296 19.8358 9.04577 19.5868 10.1529L17.7726 18.2205C17.4648 19.5896 16.249 20.5623 14.8457 20.5623Z" fill="#111111"/>
<path fill-rule="evenodd" clip-rule="evenodd" d="M9.99636 13.6238C10.417 13.6238 10.758 13.8236 10.758 14.07V17.6159C10.758 17.8623 10.417 18.0621 9.99636 18.0621C9.57573 18.0621 9.23474 17.8623 9.23474 17.6159V14.07C9.23474 13.8236 9.57573 13.6238 9.99636 13.6238Z" fill="white"/>
</svg>
