<svg width="24" height="27" viewBox="0 0 24 27" fill="none" xmlns="http://www.w3.org/2000/svg">
<path d="M1.45344 18.35C1.54805 18.2326 1.64095 18.1153 1.73215 18.002C2.98605 16.4407 3.74466 15.4984 3.74466 11.0785C3.74466 8.79028 4.27643 6.91273 5.32458 5.50457C6.09744 4.46429 7.14217 3.67513 8.51918 3.09192C8.5369 3.08177 8.55272 3.06846 8.56591 3.0526C9.06121 1.34521 10.4166 0.20166 11.9452 0.20166C13.4738 0.20166 14.8286 1.34521 15.3239 3.05084C15.3371 3.06611 15.3527 3.079 15.37 3.08898C18.5835 4.45079 20.1451 7.06352 20.1451 11.0768C20.1451 15.4984 20.9026 16.4407 22.1576 18.0003C22.2488 18.1135 22.3417 18.2285 22.4364 18.3482C22.6808 18.6516 22.8356 19.0207 22.8826 19.4119C22.9295 19.8031 22.8667 20.1999 22.7014 20.5555C22.3497 21.3182 21.6002 21.7917 20.7447 21.7917H3.13937C2.28785 21.7917 1.54349 21.3188 1.19069 20.5596C1.0247 20.204 0.961227 19.8068 1.0078 19.4152C1.05437 19.0235 1.20902 18.6539 1.45344 18.35ZM11.9452 26.4874C11.1216 26.4867 10.3135 26.2565 9.60667 25.8213C8.89985 25.3861 8.32061 24.7621 7.93041 24.0155C7.91203 23.9797 7.90295 23.9396 7.90406 23.8991C7.90516 23.8587 7.91641 23.8192 7.93672 23.7845C7.95703 23.7499 7.9857 23.7212 8.01995 23.7013C8.05419 23.6814 8.09286 23.671 8.13218 23.671H15.757C15.7964 23.6709 15.8352 23.6813 15.8695 23.7011C15.9038 23.7209 15.9326 23.7496 15.9529 23.7843C15.9733 23.819 15.9846 23.8585 15.9857 23.899C15.9869 23.9395 15.9778 23.9796 15.9594 24.0155C15.5692 24.762 14.9901 25.386 14.2834 25.8212C13.5766 26.2564 12.7687 26.4866 11.9452 26.4874Z" fill="#111111"/>
<circle cx="19.0643" cy="7.32066" r="4.92857" fill="#FF4444"/>
</svg>
